<?xml version="1.0" encoding="UTF-8"?>
<svg version="1.1" xmlns="http://www.w3.org/2000/svg" width="455" height="549">
<path d="M0 0 C1.26779297 -0.00773438 2.53558594 -0.01546875 3.84179688 -0.0234375 C15.20267413 -0.00014508 26.106679 1.13657832 36.875 4.875 C38.0053064 5.2608728 38.0053064 5.2608728 39.15844727 5.65454102 C54.34566171 11.02940727 70.24337693 19.18963544 82.0625 30.25 C82.0625 30.91 82.0625 31.57 82.0625 32.25 C83.0525 32.58 84.0425 32.91 85.0625 33.25 C85.0625 33.91 85.0625 34.57 85.0625 35.25 C85.7225 35.25 86.3825 35.25 87.0625 35.25 C87.0625 35.91 87.0625 36.57 87.0625 37.25 C88.0525 37.58 89.0425 37.91 90.0625 38.25 C90.0625 38.91 90.0625 39.57 90.0625 40.25 C90.7225 40.25 91.3825 40.25 92.0625 40.25 C93.69953123 42.10915629 95.2010052 43.96239402 96.6875 45.9375 C97.1319043 46.52547363 97.57630859 47.11344727 98.03417969 47.71923828 C118.10578972 74.66576986 125.72615281 106.96889047 121.37890625 140.24609375 C119.66850463 151.23199019 116.82102839 161.20044123 112.0625 171.25 C111.77439453 171.86343262 111.48628906 172.47686523 111.18945312 173.10888672 C107.90168437 180.06032339 104.47918375 186.94045178 100.0625 193.25 C99.4025 193.25 98.7425 193.25 98.0625 193.25 C97.78664063 193.83136719 97.51078125 194.41273438 97.2265625 195.01171875 C93.98525872 201.24415857 89.47193988 206.07752468 84.109375 210.54296875 C82.79860164 211.63611371 81.51382547 212.76169864 80.265625 213.92578125 C58.50579322 234.15126592 28.86664164 243.519207 -0.3125 243.6875 C-2.18349365 243.70272705 -2.18349365 243.70272705 -4.09228516 243.71826172 C-12.40882835 243.63993905 -19.93075749 242.46717891 -27.9375 240.25 C-29.09499756 239.93615356 -29.09499756 239.93615356 -30.27587891 239.6159668 C-38.82581069 237.20332185 -47.00504962 234.27333883 -54.9375 230.25 C-55.69160156 229.87230469 -56.44570312 229.49460937 -57.22265625 229.10546875 C-67.57661396 223.6454452 -76.45789032 216.24587355 -84.9375 208.25 C-85.60265625 207.64929688 -86.2678125 207.04859375 -86.953125 206.4296875 C-91.49306615 202.16657203 -95.23157196 197.42184566 -98.9375 192.4375 C-99.43113037 191.77862793 -99.92476074 191.11975586 -100.43334961 190.44091797 C-103.9375 185.61860161 -103.9375 185.61860161 -103.9375 182.25 C-104.5975 182.25 -105.2575 182.25 -105.9375 182.25 C-121.08211443 149.03659488 -127.21162397 114.53569228 -114.20019531 79.33618164 C-110.67912596 70.34421259 -106.37510046 62.2236242 -100.9375 54.25 C-100.29167969 53.25871094 -99.64585938 52.26742187 -98.98046875 51.24609375 C-96.9468716 48.26374381 -94.78961044 45.4770947 -92.5 42.6875 C-91.38818359 41.32431641 -91.38818359 41.32431641 -90.25390625 39.93359375 C-87.92028012 37.23005049 -85.56218574 34.6731239 -82.9375 32.25 C-82.2775 32.25 -81.6175 32.25 -80.9375 32.25 C-80.9375 31.59 -80.9375 30.93 -80.9375 30.25 C-79.10030727 28.60812344 -77.2715419 27.11018818 -75.3125 25.625 C-74.73145508 25.1820459 -74.15041016 24.7390918 -73.55175781 24.28271484 C-62.09532437 15.74095989 -49.58956395 9.76651117 -36.125 5.125 C-35.0407373 4.74384033 -35.0407373 4.74384033 -33.93457031 4.35498047 C-22.7442677 0.60917913 -11.73702026 -0.07138583 0 0 Z M-66.9375 79.25 C-67.67226562 79.56710938 -68.40703125 79.88421875 -69.1640625 80.2109375 C-77.07842594 83.94312896 -80.82463482 90.16998447 -84.75 97.75 C-89.5107739 111.78175464 -90.16676358 129.24025652 -84.9375 143.25 C-83.23087729 146.53573913 -81.28045036 149.3890709 -78.9375 152.25 C-77.8546875 153.5803125 -77.8546875 153.5803125 -76.75 154.9375 C-66.05263415 163.73311192 -55.36419259 165.4280053 -41.9375 164.25 C-33.12331587 162.28003548 -25.70115165 157.17090966 -20.625 149.75 C-14.62841766 140.05443889 -13.75598209 133.32678253 -13.75 122.0625 C-13.73775391 120.86818359 -13.72550781 119.67386719 -13.71289062 118.44335938 C-13.69079598 105.06136795 -16.18119393 94.84552934 -25.34765625 84.74609375 C-27.9571004 82.29052345 -30.68064902 80.70950168 -33.9375 79.25 C-34.55882812 78.9509375 -35.18015625 78.651875 -35.8203125 78.34375 C-45.28630873 74.45657284 -57.8414759 74.62219826 -66.9375 79.25 Z M17.0625 103.25 C16.0725 104.735 16.0725 104.735 15.0625 106.25 C14.0725 106.58 13.0825 106.91 12.0625 107.25 C11.7325 104.94 11.4025 102.63 11.0625 100.25 C7.7625 100.25 4.4625 100.25 1.0625 100.25 C0.89398791 131.26372337 0.89398791 131.26372337 2.0625 162.25 C5.6925 162.25 9.3225 162.25 13.0625 162.25 C13.08231934 160.94329346 13.10213867 159.63658691 13.12255859 158.2902832 C13.19871719 153.4352718 13.28741906 148.58055608 13.37988281 143.72583008 C13.41813014 141.62595463 13.4529904 139.52601462 13.484375 137.42602539 C13.5301175 134.40487619 13.58809723 131.38416984 13.6484375 128.36328125 C13.65998871 127.42664139 13.67153992 126.49000153 13.68344116 125.52497864 C13.82302793 119.33911997 14.33054228 115.30100257 18.4375 110.4375 C22.33040217 107.4000751 26.51359242 107.61561565 31.27734375 107.828125 C34.9470066 108.38397856 36.72279712 109.36436645 39.0625 112.25 C41.7171671 117.1121386 41.41153624 122.18618369 41.4765625 127.58203125 C41.49592865 128.57377853 41.5152948 129.56552582 41.5352478 130.58732605 C41.59488453 133.7456307 41.64136555 136.9039721 41.6875 140.0625 C41.7256944 142.20769792 41.76474698 144.35288075 41.8046875 146.49804688 C41.90057313 151.74857488 41.98466312 156.99917467 42.0625 162.25 C46.0225 162.25 49.9825 162.25 54.0625 162.25 C54.04678955 160.34323486 54.04678955 160.34323486 54.03076172 158.39794922 C53.99447806 153.66799756 53.97156904 148.93805813 53.95263672 144.20800781 C53.94259821 142.16339039 53.92896458 140.11878726 53.91162109 138.07421875 C53.8872783 135.13017239 53.87599522 132.18631637 53.8671875 129.2421875 C53.85686493 128.3325827 53.84654236 127.42297791 53.83590698 126.48580933 C53.83506631 121.69740711 54.04528202 117.69338966 56.0625 113.25 C61.00496999 108.67821526 64.04006886 108.00716189 70.58203125 108.1015625 C73.53103371 108.27803824 75.57351756 108.61660528 78.0625 110.25 C79.3125 112.6875 79.3125 112.6875 80.0625 115.25 C80.5575 116.735 80.5575 116.735 81.0625 118.25 C81.17599848 119.70706917 81.23851475 121.16844959 81.26782227 122.62963867 C81.2977401 123.95066841 81.2977401 123.95066841 81.32826233 125.29838562 C81.34497482 126.24534805 81.36168732 127.19231049 81.37890625 128.16796875 C81.39968735 129.14034988 81.42046844 130.11273102 81.44187927 131.11457825 C81.50728748 134.22214665 81.56621929 137.32979985 81.625 140.4375 C81.66819351 142.54362858 81.71180807 144.64974856 81.75585938 146.75585938 C81.86295999 151.92048591 81.96425219 157.08519778 82.0625 162.25 C85.6925 162.25 89.3225 162.25 93.0625 162.25 C93.0873244 156.1302113 93.10541879 150.01045229 93.11743164 143.890625 C93.12244271 141.81119272 93.12925335 139.73176393 93.13793945 137.65234375 C93.15014683 134.65363703 93.15576071 131.65497714 93.16015625 128.65625 C93.16531754 127.73509399 93.17047882 126.81393799 93.17579651 125.86486816 C93.17662336 116.22802947 92.74052393 108.73425461 86.0625 101.25 C80.08430082 97.22386586 73.07847857 97.3337658 66.0625 98.25 C60.76771416 100.1809494 56.88115096 103.13760666 53.0625 107.25 C52.0725 107.58 51.0825 107.91 50.0625 108.25 C49.835625 107.5075 49.60875 106.765 49.375 106 C47.74935866 102.59389434 46.26290104 101.24136065 43.0625 99.25 C39.75682511 98.39612895 39.75682511 98.39612895 36.0625 98.25 C35.37027344 98.17523438 34.67804688 98.10046875 33.96484375 98.0234375 C27.47820321 97.58870674 22.42908968 99.64860239 17.0625 103.25 Z " fill="#626FBE" transform="translate(226.9375,152.75)"/>
<path d="M0 0 C3.7952129 1.73926958 6.26416641 3.88272807 9 7 C9.78375 7.763125 10.5675 8.52625 11.375 9.3125 C16.41981768 17.65585232 16.46531835 26.68902034 16.375 36.1875 C16.38660156 37.41919922 16.39820313 38.65089844 16.41015625 39.91992188 C16.3747189 50.87597007 13.74101845 57.2054219 6.75 65.75 C0.91413766 70.52479646 -6.73501798 70.7186381 -14 70 C-18.78768335 69.04096484 -22.07498879 67.92501121 -25.5625 64.4375 C-27 62 -27 62 -27 60 C-27.66 60 -28.32 60 -29 60 C-36.82824687 50.21469141 -34.80461623 33.08114564 -33.640625 21.390625 C-32.11093002 13.41140522 -27.91702843 8.40428767 -22 3 C-21.42507812 2.42636719 -20.85015625 1.85273438 -20.2578125 1.26171875 C-14.63751001 -1.87903852 -6.18633311 -1.04894337 0 0 Z " fill="#626EBE" transform="translate(185,238)"/>
<path d="M0 0 C0.33 0 0.66 0 1 0 C1.10585301 6.24532781 1.10465605 11.41161911 -2 17 C-2.66 17 -3.32 17 -4 17 C-4.103125 17.5775 -4.20625 18.155 -4.3125 18.75 C-5.10124725 21.33135463 -6.35786022 22.87890278 -8 25 C-8.495 26.485 -8.495 26.485 -9 28 C-9.66 28 -10.32 28 -11 28 C-11.226875 28.598125 -11.45375 29.19625 -11.6875 29.8125 C-13.37158235 32.61930392 -15.13143061 33.46564893 -18 35 C-18.7425 35.515625 -19.485 36.03125 -20.25 36.5625 C-30.54160856 41.94220448 -43.0647636 41.02429566 -53.85546875 37.75390625 C-56 37 -56 37 -58 36 C-58 35.34 -58 34.68 -58 34 C-59.65 33.67 -61.3 33.34 -63 33 C-63 32.34 -63 31.68 -63 31 C-63.804375 30.360625 -64.60875 29.72125 -65.4375 29.0625 C-68 27 -68 27 -69 24 C-69.66 23.401875 -70.32 22.80375 -71 22.1875 C-73.46116528 19.49560047 -73.67519632 17.57284046 -74 14 C-72.68 13.67 -71.36 13.34 -70 13 C-69.443125 13.886875 -68.88625 14.77375 -68.3125 15.6875 C-63.4653773 22.83239367 -57.31734792 26.82113163 -49.19921875 29.62109375 C-39.39246439 31.31071217 -28.70643669 31.08672766 -20 26 C-19.29617187 25.59910156 -18.59234375 25.19820313 -17.8671875 24.78515625 C-12.52500071 21.28125046 -9.66988418 16.796637 -6.54296875 11.29296875 C-5 9 -5 9 -2 8 C-1.855625 7.05125 -1.71125 6.1025 -1.5625 5.125 C-1 2 -1 2 0 0 Z " fill="#53609F" transform="translate(215,286)"/>
<path d="M0 0 C3.78071859 1.75394162 6.2782672 3.87552869 9 7 C10.2684375 8.36125 10.2684375 8.36125 11.5625 9.75 C13 12 13 12 13 15 C12.34 15 11.68 15 11 15 C10.67 15.66 10.34 16.32 10 17 C7 15 7 15 4.875 12.9375 C1.46839206 10.64174248 -0.89348904 10.41591789 -4.9140625 10.17578125 C-7 10 -7 10 -10 9 C-12.90117366 9.68574694 -12.90117366 9.68574694 -16 10.8125 C-17.051875 11.16957031 -18.10375 11.52664062 -19.1875 11.89453125 C-23.38712258 13.54521624 -24.74673507 14.45594942 -26.6875 18.625 C-27.120625 19.73875 -27.55375 20.8525 -28 22 C-28.66 22 -29.32 22 -30 22 C-30.61727456 15.08652496 -29.29606972 11.40904115 -25 6 C-24.58492187 5.39414063 -24.16984375 4.78828125 -23.7421875 4.1640625 C-18.18084643 -2.30897383 -7.73378104 -1.52332051 0 0 Z " fill="#5762A5" transform="translate(185,238)"/>
<path d="M0 0 C0.66 0 1.32 0 2 0 C5.77013532 6.39227095 6.55539343 11.05452389 6.390625 18.40625 C6.38496521 19.3715564 6.37930542 20.33686279 6.37347412 21.3314209 C6.35123963 24.38813717 6.30106775 27.44364328 6.25 30.5 C6.22991828 32.5833163 6.21167045 34.66665113 6.1953125 36.75 C6.15141725 41.8337934 6.08248003 46.91669215 6 52 C6.99 52.33 7.98 52.66 9 53 C6.03 53.495 6.03 53.495 3 54 C2.04012389 51.12037166 1.87846186 49.33372559 1.88647461 46.3449707 C1.88655014 45.40422195 1.88662567 44.46347321 1.88670349 43.49421692 C1.89186478 42.48163315 1.89702606 41.46904938 1.90234375 40.42578125 C1.9037587 39.38681198 1.90517365 38.34784271 1.90663147 37.27738953 C1.91223344 33.95573052 1.92478628 30.63413867 1.9375 27.3125 C1.94251475 25.06184993 1.9470777 22.81119881 1.95117188 20.56054688 C1.96220351 15.04034163 1.97894357 9.52017561 2 4 C1.01 4.99 0.02 5.98 -1 7 C-1.625 5.1875 -1.625 5.1875 -2 3 C-1.34 2.01 -0.68 1.02 0 0 Z " fill="#969DCC" transform="translate(303,263)"/>
<path d="M0 0 C0.495 0.99 0.495 0.99 1 2 C0.34 2 -0.32 2 -1 2 C-1.226875 2.61875 -1.45375 3.2375 -1.6875 3.875 C-3.46008953 6.74490687 -4.77853891 7.03009774 -8 8 C-10.64607209 8.13710218 -13.17469013 8.19062972 -15.8125 8.125 C-16.85180664 8.11146484 -16.85180664 8.11146484 -17.91210938 8.09765625 C-19.60822395 8.07426157 -21.30415871 8.03839641 -23 8 C-23.33 8.99 -23.66 9.98 -24 11 C-23.01 11.33 -22.02 11.66 -21 12 C-28.99545086 12.38073576 -35.43128307 11.54908352 -42.0625 6.8125 C-42.701875 6.214375 -43.34125 5.61625 -44 5 C-43.67 4.01 -43.34 3.02 -43 2 C-41.41642541 2.31127516 -39.83315007 2.62407289 -38.25 2.9375 C-37.36828125 3.11152344 -36.4865625 3.28554688 -35.578125 3.46484375 C-33 4 -33 4 -31.1796875 4.546875 C-21.38078668 6.58392248 -10.79403319 5.7914973 -2 1 C-1.34 0.67 -0.68 0.34 0 0 Z " fill="#4C5892" transform="translate(197,311)"/>
<path d="M0 0 C-2.10716805 5.26792012 -5.87386129 6.76799548 -10.72265625 9.08203125 C-13 10 -13 10 -15 10 C-15 10.66 -15 11.32 -15 12 C-19.15626368 13.00926479 -23.04365094 13.10239579 -27.3125 13.0625 C-28.56675781 13.05347656 -29.82101563 13.04445313 -31.11328125 13.03515625 C-32.06589844 13.02355469 -33.01851562 13.01195312 -34 13 C-33.67 12.38125 -33.34 11.7625 -33 11.125 C-31.85806765 9.08981656 -31.85806765 9.08981656 -32 7 C-30.37191406 7.05220703 -30.37191406 7.05220703 -28.7109375 7.10546875 C-27.26564058 7.13362388 -25.82032679 7.16092219 -24.375 7.1875 C-23.66214844 7.21263672 -22.94929687 7.23777344 -22.21484375 7.26367188 C-17.40131308 7.32991312 -14.17768494 6.65443674 -10 4 C-9.67 3.34 -9.34 2.68 -9 2 C-8.34 2 -7.68 2 -7 2 C-7 1.34 -7 0.68 -7 0 C-2.25 -1.125 -2.25 -1.125 0 0 Z " fill="#4E5894" transform="translate(205,311)"/>
<path d="M0 0 C0.99 0.33 1.98 0.66 3 1 C3 1.66 3 2.32 3 3 C2.34 3 1.68 3 1 3 C1.00222061 3.57407089 1.00444122 4.14814178 1.00672913 4.73960876 C1.02878257 10.6925291 1.04390684 16.6454379 1.05493164 22.59838867 C1.05997317 24.82267732 1.06680623 27.04696263 1.07543945 29.27124023 C1.08751298 32.46078309 1.09322996 35.65028229 1.09765625 38.83984375 C1.10281754 39.84087631 1.10797882 40.84190887 1.11329651 41.87327576 C1.11337204 42.79415482 1.11344757 43.71503387 1.11352539 44.66381836 C1.115746 45.47878281 1.11796661 46.29374725 1.12025452 47.13340759 C1 49 1 49 0 50 C-2.67058851 50.14115161 -5.32432238 50.04247107 -8 50 C-8 49.67 -8 49.34 -8 49 C-5.03 48.505 -5.03 48.505 -2 48 C-2.01047363 46.75911621 -2.02094727 45.51823242 -2.03173828 44.23974609 C-2.06802755 39.62161155 -2.09093298 35.00348954 -2.10986328 30.38525391 C-2.11990052 28.38913857 -2.1335332 26.39303786 -2.15087891 24.39697266 C-2.17522735 21.52242413 -2.18650605 18.64807059 -2.1953125 15.7734375 C-2.20563507 14.88570648 -2.21595764 13.99797546 -2.22659302 13.08334351 C-2.2274508 8.31115375 -1.85434578 4.48507854 0 0 Z " fill="#7984C1" transform="translate(282,266)"/>
<path d="M0 0 C0.76441406 0.07605469 1.52882813 0.15210938 2.31640625 0.23046875 C4.85224463 0.92630654 5.82492428 1.75879414 7.4375 3.8125 C8.53256492 7.09769475 8.53710608 9.54913415 8.5 13 C8.49097656 14.08667969 8.48195313 15.17335938 8.47265625 16.29296875 C8.46105469 17.12441406 8.44945312 17.95585937 8.4375 18.8125 C8.1075 18.8125 7.7775 18.8125 7.4375 18.8125 C7.1075 16.5025 6.7775 14.1925 6.4375 11.8125 C5.7775 11.8125 5.1175 11.8125 4.4375 11.8125 C4.4375 11.1525 4.4375 10.4925 4.4375 9.8125 C3.4475 9.4825 2.4575 9.1525 1.4375 8.8125 C1.4375 8.1525 1.4375 7.4925 1.4375 6.8125 C-0.47981918 6.92705681 -2.3963675 7.05456258 -4.3125 7.1875 C-5.91351563 7.29191406 -5.91351563 7.29191406 -7.546875 7.3984375 C-10.41826378 7.79269554 -12.16541057 8.22523808 -14.5625 9.8125 C-15.2225 10.8025 -15.8825 11.7925 -16.5625 12.8125 C-16.5625 11.1625 -16.5625 9.5125 -16.5625 7.8125 C-15.61375 7.565 -14.665 7.3175 -13.6875 7.0625 C-10.12946327 5.63928531 -10.01015978 5.12143663 -8.5625 1.8125 C-5.5679436 -0.11115543 -3.50346097 -0.40903351 0 0 Z " fill="#515D9E" transform="translate(259.5625,261.1875)"/>
<path d="M0 0 C2.0625 2.3125 2.0625 2.3125 4 5 C3 8 3 8 1 9 C1.09418815 13.14466145 1.20041899 17.2887947 1.31738281 21.43286133 C1.35545293 22.84000398 1.39034245 24.24723669 1.421875 25.65454102 C1.4680078 27.68798823 1.52591568 29.72082707 1.5859375 31.75390625 C1.6173584 32.97408447 1.6487793 34.1942627 1.68115234 35.45141602 C2.01574724 39.1752574 2.93335362 42.42640877 4 46 C3.7578125 48.65234375 3.7578125 48.65234375 3.125 50.9375 C2.92132813 51.70964844 2.71765625 52.48179687 2.5078125 53.27734375 C2.34023437 53.84582031 2.17265625 54.41429687 2 55 C1.67 55 1.34 55 1 55 C-1.55863651 45.05482358 -2.30122783 35.50556155 -2.3125 25.25 C-2.32023437 23.5652356 -2.32023437 23.5652356 -2.328125 21.84643555 C-2.26693571 14.39281472 -1.4440129 7.31016031 0 0 Z " fill="#848DC2" transform="translate(108,249)"/>
<path d="M0 0 C0.99 0.66 1.98 1.32 3 2 C2.42655063 4.86724686 2.1385485 5.8614515 0 8 C-3.34423499 8.38722721 -6.66857702 8.50745916 -10.03125 8.65625 C-13.11606771 8.70201329 -13.11606771 8.70201329 -15 11 C-15.69748583 12.31747324 -16.36959957 13.64914193 -17 15 C-17 13.02 -17 11.04 -17 9 C-16.34 9 -15.68 9 -15 9 C-15 8.34 -15 7.68 -15 7 C-15.66 7 -16.32 7 -17 7 C-16.03441599 4.45436943 -15.06131195 3.05364796 -13 1.25 C-8.73074222 -0.52885741 -4.57098437 -0.5965522 0 0 Z " fill="#515C9B" transform="translate(300,260)"/>
<path d="M0 0 C0.33 0 0.66 0 1 0 C1.29374474 4.99366052 1.20143631 8.05357537 -2 12 C-4.8125 12.62890625 -4.8125 12.62890625 -8 12.5625 C-9.5778125 12.56443359 -9.5778125 12.56443359 -11.1875 12.56640625 C-14 12 -14 12 -15.9375 10.21484375 C-17 8 -17 8 -16.6875 5.75 C-16.3471875 4.88375 -16.3471875 4.88375 -16 4 C-14.2300132 3.80467039 -12.45895721 3.61901118 -10.6875 3.4375 C-9.70136719 3.33308594 -8.71523438 3.22867187 -7.69921875 3.12109375 C-5 3 -5 3 -2 4 C-1.67 3.01 -1.34 2.02 -1 1 C-0.67 0.67 -0.34 0.34 0 0 Z " fill="#5C67A7" transform="translate(323,312)"/>
<path d="M0 0 C0.99 0.66 1.98 1.32 3 2 C1 5 -1 8 -3 11 C-3.68177416 12.32567199 -4.35191436 13.65753688 -5 15 C-5.66 15 -6.32 15 -7 15 C-7.12375 15.969375 -7.2475 16.93875 -7.375 17.9375 C-7.58125 18.948125 -7.7875 19.95875 -8 21 C-8.66 21.33 -9.32 21.66 -10 22 C-9.938125 23.19625 -9.87625 24.3925 -9.8125 25.625 C-9.79056063 29.73497595 -10.86869566 32.4478261 -13 36 C-13.99 36 -14.98 36 -16 36 C-16.103125 37.0725 -16.20625 38.145 -16.3125 39.25 C-16.97400493 42.85820872 -17.57483421 44.36395023 -20 47 C-19.51202987 40.15467254 -18.0525265 34.5764782 -15.4375 28.25 C-15.08469971 27.38109131 -14.73189941 26.51218262 -14.3684082 25.61694336 C-11.27129584 18.21253414 -7.46121305 11.65719819 -3 5 C-1.99063387 3.33898892 -0.98746101 1.6741262 0 0 Z " fill="#7984BE" transform="translate(129,202)"/>
<path d="M0 0 C2.28849509 0.12645873 4.01154269 -0.20856096 6.19140625 -0.87890625 C6.85140625 0.77109375 7.51140625 2.42109375 8.19140625 4.12109375 C7.53140625 4.12109375 6.87140625 4.12109375 6.19140625 4.12109375 C6.19140625 6.10109375 6.19140625 8.08109375 6.19140625 10.12109375 C5.67578125 9.35796875 5.16015625 8.59484375 4.62890625 7.80859375 C0.84626896 3.63799366 -2.39228066 2.40481567 -7.8359375 1.765625 C-15.42401545 1.43801837 -20.73672799 2.47170413 -26.80859375 7.12109375 C-28.15958478 8.43653238 -29.50065044 9.76284493 -30.80859375 11.12109375 C-31.79859375 11.12109375 -32.78859375 11.12109375 -33.80859375 11.12109375 C-34.46859375 9.47109375 -35.12859375 7.82109375 -35.80859375 6.12109375 C-35.23109375 6.36859375 -34.65359375 6.61609375 -34.05859375 6.87109375 C-33.31609375 6.95359375 -32.57359375 7.03609375 -31.80859375 7.12109375 C-31.18984375 6.50234375 -30.57109375 5.88359375 -29.93359375 5.24609375 C-27.29296029 2.60546029 -25.4553937 2.45262102 -21.80859375 2.12109375 C-21.80859375 1.46109375 -21.80859375 0.80109375 -21.80859375 0.12109375 C-14.95406661 -2.16374863 -7.05865721 -0.94192955 0 0 Z " fill="#7882BE" transform="translate(310.80859375,249.87890625)"/>
<path d="M0 0 C0.125 2.875 0.125 2.875 0 6 C-2 8 -2 8 -4.53125 8.265625 C-5.5109375 8.26046875 -6.490625 8.2553125 -7.5 8.25 C-8.4796875 8.25515625 -9.459375 8.2603125 -10.46875 8.265625 C-13 8 -13 8 -15 6 C-15.125 2.875 -15.125 2.875 -15 0 C-9.96266834 -1.5111995 -5.11828973 -0.64599773 0 0 Z " fill="#5862A0" transform="translate(242,316)"/>
<path d="M0 0 C0.33 0.66 0.66 1.32 1 2 C-0.051875 1.938125 -1.10375 1.87625 -2.1875 1.8125 C-6.86563967 2.04257244 -9.28239821 3.28239821 -12.5625 6.5625 C-14.21515119 8.21515119 -15.92355049 8.96177525 -18 10 C-19.15291684 12.30583369 -19.15397338 13.69866887 -19.20532227 16.26611328 C-19.22526749 17.14687531 -19.24521271 18.02763733 -19.26576233 18.93508911 C-19.28247482 19.88721283 -19.29918732 20.83933655 -19.31640625 21.8203125 C-19.33718735 22.79410858 -19.35796844 23.76790466 -19.37937927 24.77120972 C-19.44488598 27.88906647 -19.50376497 31.00700903 -19.5625 34.125 C-19.60568415 36.23568604 -19.6492984 38.34636333 -19.69335938 40.45703125 C-19.80056847 45.6379295 -19.90233278 50.81891356 -20 56 C-20.99 55.67 -21.98 55.34 -23 55 C-22.34 55 -21.68 55 -21 55 C-21.01047363 53.69329346 -21.02094727 52.38658691 -21.03173828 51.0402832 C-21.06797839 46.18549344 -21.09091517 41.3307156 -21.10986328 36.47583008 C-21.11991169 34.37587472 -21.13355266 32.27593331 -21.15087891 30.17602539 C-21.17517801 27.1550756 -21.18649482 24.13431105 -21.1953125 21.11328125 C-21.20563507 20.17664139 -21.21595764 19.24000153 -21.22659302 18.27497864 C-21.22752269 12.85593417 -20.97168169 8.72139299 -17.6953125 4.19921875 C-12.32286754 -0.97276184 -7.16445411 -0.63527179 0 0 Z " fill="#878EBC" transform="translate(261,260)"/>
<path d="M0 0 C0 3.20395416 -0.74335022 5.09399739 -2 8 C-4.12438339 8.08078641 -6.2496323 8.13909141 -8.375 8.1875 C-10.15003906 8.23970703 -10.15003906 8.23970703 -11.9609375 8.29296875 C-13.46527344 8.14794922 -13.46527344 8.14794922 -15 8 C-15.66 7.01 -16.32 6.02 -17 5 C-16.67 4.34 -16.34 3.68 -16 3 C-16.66 2.67 -17.32 2.34 -18 2 C-11.84629161 0.176679 -6.40353322 -0.2361959 0 0 Z " fill="#4B589A" transform="translate(283,315)"/>
<path d="M0 0 C5.61 0 11.22 0 17 0 C16.01 0.33 15.02 0.66 14 1 C14 1.66 14 2.32 14 3 C15.32 3 16.64 3 18 3 C17 5 17 5 15 6 C13.25412209 6.2053974 11.50279681 6.36590626 9.75 6.5 C6.56842804 6.75435896 3.57714168 7.08160424 0.4375 7.6875 C-0.366875 7.790625 -1.17125 7.89375 -2 8 C-2.66 7.34 -3.32 6.68 -4 6 C-3.525625 5.566875 -3.05125 5.13375 -2.5625 4.6875 C-0.76313043 2.97690387 -0.76313043 2.97690387 0 0 Z " fill="#515B93" transform="translate(167,239)"/>
<path d="M0 0 C2.84394166 3.18836366 3.36361896 5.18286254 3.29296875 9.421875 C3.28330078 10.44667969 3.27363281 11.47148437 3.26367188 12.52734375 C3.23853516 13.59082031 3.21339844 14.65429688 3.1875 15.75 C3.17396484 16.82894531 3.16042969 17.90789062 3.14648438 19.01953125 C3.11116584 21.6801942 3.06184199 24.33984296 3 27 C3.99 27.33 4.98 27.66 6 28 C4.35 28 2.7 28 1 28 C0.67 29.32 0.34 30.64 0 32 C-2.17978932 28.49092797 -2.18172502 25.81753857 -2.01171875 21.73828125 C-1.96466797 20.53751953 -1.91761719 19.33675781 -1.86914062 18.09960938 C-1.80919922 16.84986328 -1.74925781 15.60011719 -1.6875 14.3125 C-1.63916016 13.05115234 -1.59082031 11.78980469 -1.54101562 10.49023438 C-1.14338442 1.14338442 -1.14338442 1.14338442 0 0 Z " fill="#8991CC" transform="translate(226,288)"/>
<path d="M0 0 C0.54527344 0.26554687 1.09054688 0.53109375 1.65234375 0.8046875 C2.40644531 1.15789062 3.16054687 1.51109375 3.9375 1.875 C4.66839844 2.22304688 5.39929688 2.57109375 6.15234375 2.9296875 C13.42752002 5.66411589 20.33962681 6.28077556 28.0625 6.125 C28.92810547 6.11597656 29.79371094 6.10695313 30.68554688 6.09765625 C32.79048779 6.07439723 34.89528342 6.03854008 37 6 C37 5.34 37 4.68 37 4 C40.465 3.505 40.465 3.505 44 3 C42.72944038 5.54111925 41.87227472 5.62104423 39.25 6.5625 C38.57453125 6.81128906 37.8990625 7.06007813 37.203125 7.31640625 C26.49603659 10.63864113 14.09509781 10.04754891 4 5 C4 4.34 4 3.68 4 3 C2.35 2.67 0.7 2.34 -1 2 C-0.67 1.34 -0.34 0.68 0 0 Z " fill="#5765AA" transform="translate(153,317)"/>
<path d="M0 0 C0.33 0 0.66 0 1 0 C1.96278859 7.29408638 2.18318725 14.45926126 2.1875 21.8125 C2.19974609 22.93076172 2.21199219 24.04902344 2.22460938 25.20117188 C2.22654297 26.27560547 2.22847656 27.35003906 2.23046875 28.45703125 C2.23457764 29.42616455 2.23868652 30.39529785 2.24291992 31.39379883 C1.99320989 34.07284863 1.36672543 35.7070024 0 38 C-1.23758822 32.23441045 -1.14754408 26.55271842 -1.125 20.6875 C-1.12886719 19.69298828 -1.13273437 18.69847656 -1.13671875 17.67382812 C-1.1288754 11.70111371 -0.77334088 5.9228091 0 0 Z " fill="#7D85BA" transform="translate(347,253)"/>
<path d="M0 0 C0.66 0 1.32 0 2 0 C3.1650499 2.3300998 3.1209358 3.67247077 3.11352539 6.26611328 C3.11344986 7.14687531 3.11337433 8.02763733 3.11329651 8.93508911 C3.10813522 9.88721283 3.10297394 10.83933655 3.09765625 11.8203125 C3.0962413 12.79410858 3.09482635 13.76790466 3.09336853 14.77120972 C3.08775973 17.88917073 3.07520573 21.0070606 3.0625 24.125 C3.05748613 26.23567605 3.05292303 28.34635322 3.04882812 30.45703125 C3.03778745 35.63804521 3.02104073 40.81901752 3 46 C2.67 46 2.34 46 2 46 C1.67 37.42 1.34 28.84 1 20 C0.67 20 0.34 20 0 20 C0 13.4 0 6.8 0 0 Z " fill="#5760A6" transform="translate(225,269)"/>
<path d="M0 0 C0.33 0.66 0.66 1.32 1 2 C0.01 3.485 0.01 3.485 -1 5 C-1.24219315 7.97449608 -1.24219315 7.97449608 -1.125 11.1875 C-1.09792969 12.81751953 -1.09792969 12.81751953 -1.0703125 14.48046875 C-1.04710937 15.31191406 -1.02390625 16.14335937 -1 17 C-1.66 17 -2.32 17 -3 17 C-3.33 23.27 -3.66 29.54 -4 36 C-4.66 36 -5.32 36 -6 36 C-6.74278452 8.15933589 -6.74278452 8.15933589 0 0 Z " fill="#8E95C2" transform="translate(157,247)"/>
<path d="M0 0 C1.06089844 -0.00386719 2.12179688 -0.00773437 3.21484375 -0.01171875 C4.86806641 0.00568359 4.86806641 0.00568359 6.5546875 0.0234375 C7.66457031 0.01183594 8.77445313 0.00023437 9.91796875 -0.01171875 C10.97628906 -0.00785156 12.03460938 -0.00398438 13.125 0 C14.09453613 0.00338379 15.06407227 0.00676758 16.06298828 0.01025391 C16.84399902 0.13835449 17.62500977 0.26645508 18.4296875 0.3984375 C19.0896875 1.3884375 19.7496875 2.3784375 20.4296875 3.3984375 C10.5296875 3.3984375 0.6296875 3.3984375 -9.5703125 3.3984375 C-5.44195759 0.30217132 -4.79921103 0.0167109 0 0 Z " fill="#808CC7" transform="translate(221.5703125,392.6015625)"/>
<path d="M0 0 C0.33 0 0.66 0 1 0 C3.10248556 11.30085986 2.96776604 20.50729193 -3.0625 30.375 C-5 33 -5 33 -7 34 C-7.33 32.68 -7.66 31.36 -8 30 C-7.34 30 -6.68 30 -6 30 C-5.731875 29.278125 -5.46375 28.55625 -5.1875 27.8125 C-4 25 -4 25 -2.46875 22.96875 C-0.31948511 18.62449119 -0.43091966 14.47503762 -0.3125 9.6875 C-0.27833984 8.75615234 -0.24417969 7.82480469 -0.20898438 6.86523438 C-0.12684059 4.57694328 -0.05758338 2.28901896 0 0 Z " fill="#8990C4" transform="translate(199,268)"/>
<path d="M0 0 C0.99 0.33 1.98 0.66 3 1 C3.08708752 5.2498709 3.14042181 9.49951239 3.1875 13.75 C3.22520508 15.55984375 3.22520508 15.55984375 3.26367188 17.40625 C3.27333984 18.56640625 3.28300781 19.7265625 3.29296875 20.921875 C3.3086792 21.99018555 3.32438965 23.05849609 3.34057617 24.15917969 C3 27 3 27 0 31 C0 20.77 0 10.54 0 0 Z " fill="#616EA9" transform="translate(136,259)"/>
<path d="M0 0 C2.85579076 -0.13599004 5.70501175 -0.23454826 8.5625 -0.3125 C9.36236328 -0.35439453 10.16222656 -0.39628906 10.98632812 -0.43945312 C17.26995776 -0.56769046 20.22411327 0.92927776 25 5 C24.67 6.32 24.34 7.64 24 9 C23.01 9 22.02 9 21 9 C21 8.34 21 7.68 21 7 C18.69 7.33 16.38 7.66 14 8 C15.32 6.68 16.64 5.36 18 4 C16.68 4 15.36 4 14 4 C14 3.34 14 2.68 14 2 C7.07 1.505 7.07 1.505 0 1 C0 0.67 0 0.34 0 0 Z " fill="#7F87B7" transform="translate(167,238)"/>
<path d="M0 0 C4.73127546 1.33067122 7.69672104 4.19143943 11.23046875 7.44140625 C12.92814506 9.07056716 12.92814506 9.07056716 15 10 C15 10.66 15 11.32 15 12 C15.99 12.33 16.98 12.66 18 13 C18 13.66 18 14.32 18 15 C18.66 15 19.32 15 20 15 C19.67 15.66 19.34 16.32 19 17 C18.01 17.33 17.02 17.66 16 18 C15.67 17.01 15.34 16.02 15 15 C14.34 14.67 13.68 14.34 13 14 C12.71125 13.34 12.4225 12.68 12.125 12 C11.19382599 9.80969443 11.19382599 9.80969443 9 9.375 C8.34 9.25125 7.68 9.1275 7 9 C6.34 8.34 5.68 7.68 5 7 C5 6.01 5 5.02 5 4 C4.360625 3.896875 3.72125 3.79375 3.0625 3.6875 C2.381875 3.460625 1.70125 3.23375 1 3 C0.67 2.01 0.34 1.02 0 0 Z " fill="#7B87C3" transform="translate(294,173)"/>
<path d="M0 0 C5.57142857 5.14285714 5.57142857 5.14285714 6 9 C5.34 9 4.68 9 4 9 C3.67 9.66 3.34 10.32 3 11 C0.18300938 9.12200625 -2.43981482 7.21421421 -5 5 C-5 4.34 -5 3.68 -5 3 C-5.99 3 -6.98 3 -8 3 C-7.67 2.34 -7.34 1.68 -7 1 C-6.01 1 -5.02 1 -4 1 C-4 1.66 -4 2.32 -4 3 C-3.01 2.67 -2.02 2.34 -1 2 C-0.67 1.34 -0.34 0.68 0 0 Z " fill="#4F5C9B" transform="translate(192,244)"/>
<path d="M0 0 C0 0.66 0 1.32 0 2 C1.65 2 3.3 2 5 2 C4.67 3.32 4.34 4.64 4 6 C2.56589632 6.24954005 1.12739928 6.47392642 -0.3125 6.6875 C-1.11300781 6.81511719 -1.91351563 6.94273437 -2.73828125 7.07421875 C-5 7 -5 7 -6.79296875 5.70703125 C-8 4 -8 4 -8 1 C-5.10765685 0.17361624 -3.11257569 0 0 0 Z " fill="#48528B" transform="translate(316,315)"/>
<path d="M0 0 C0.66 0.33 1.32 0.66 2 1 C1.34 4.63 0.68 8.26 0 12 C-0.66 12 -1.32 12 -2 12 C-2.185625 12.598125 -2.37125 13.19625 -2.5625 13.8125 C-4.71810455 17.09276779 -7.35676979 17.78558993 -11 19 C-11.99 18.67 -12.98 18.34 -14 18 C-13.28972656 17.68546875 -12.57945312 17.3709375 -11.84765625 17.046875 C-10.92855469 16.61890625 -10.00945312 16.1909375 -9.0625 15.75 C-8.14597656 15.33234375 -7.22945312 14.9146875 -6.28515625 14.484375 C-3.83550383 13.21446051 -3.83550383 13.21446051 -3.18359375 10.828125 C-3.12300781 10.22484375 -3.06242188 9.6215625 -3 9 C-4.65 9 -6.3 9 -8 9 C-7.236875 8.2575 -6.47375 7.515 -5.6875 6.75 C-3.5606298 4.5736677 -1.7440044 2.47832204 0 0 Z " fill="#5464A3" transform="translate(206,302)"/>
<path d="M0 0 C0 0.99 0 1.98 0 3 C-0.9590625 3.1546875 -0.9590625 3.1546875 -1.9375 3.3125 C-2.618125 3.539375 -3.29875 3.76625 -4 4 C-4.33 4.99 -4.66 5.98 -5 7 C-5.99 7.33 -6.98 7.66 -8 8 C-7.67 8.99 -7.34 9.98 -7 11 C-8.3921875 10.690625 -8.3921875 10.690625 -9.8125 10.375 C-13.15173402 9.63307034 -13.15173402 9.63307034 -16 12 C-16.33 11.01 -16.66 10.02 -17 9 C-15.10673459 7.87068379 -13.2102736 6.74672384 -11.3125 5.625 C-10.25675781 4.99851563 -9.20101562 4.37203125 -8.11328125 3.7265625 C-5.442809 2.24557287 -2.86067949 1.05086185 0 0 Z " fill="#8C95C8" transform="translate(178,163)"/>
<path d="M0 0 C0.495 0.99 0.495 0.99 1 2 C0.34 2 -0.32 2 -1 2 C-1.226875 2.61875 -1.45375 3.2375 -1.6875 3.875 C-3.43417887 6.70295627 -4.85470847 7.01932614 -8 8 C-10.77075195 8.13525391 -10.77075195 8.13525391 -13.73828125 7.9765625 C-14.80498047 7.925 -15.87167969 7.8734375 -16.97070312 7.8203125 C-18.07349609 7.75585938 -19.17628906 7.69140625 -20.3125 7.625 C-21.43462891 7.56828125 -22.55675781 7.5115625 -23.71289062 7.453125 C-26.47594074 7.31203308 -29.23802985 7.16065719 -32 7 C-32 6.34 -32 5.68 -32 5 C-31.44650879 5.02094727 -30.89301758 5.04189453 -30.32275391 5.06347656 C-15.63805416 5.78765947 -15.63805416 5.78765947 -2 1 C-1.34 0.67 -0.68 0.34 0 0 Z " fill="#7479A1" transform="translate(197,311)"/>
<path d="M0 0 C0.99 0.66 1.98 1.32 3 2 C0 6.5 0 6.5 -3 11 C-3.68177416 12.32567199 -4.35191436 13.65753688 -5 15 C-5.66 15 -6.32 15 -7 15 C-7 15.99 -7 16.98 -7 18 C-8.98 18.99 -8.98 18.99 -11 20 C-9.71982978 14.59483684 -6.88999877 10.76563392 -3.65625 6.3671875 C-2.20561856 4.29387936 -1.05646698 2.29253335 0 0 Z " fill="#8B93C7" transform="translate(129,202)"/>
<path d="M0 0 C1.93719378 -0.05406122 3.87481921 -0.09282025 5.8125 -0.125 C6.89144531 -0.14820313 7.97039062 -0.17140625 9.08203125 -0.1953125 C12 0 12 0 15 2 C12.65759975 4.34240025 11.82911717 4.36283032 8.625 4.6875 C7.85414063 4.77386719 7.08328125 4.86023438 6.2890625 4.94921875 C3.98751626 5.00027694 2.19308988 4.66593825 0 4 C0 2.68 0 1.36 0 0 Z " fill="#4B548E" transform="translate(173,318)"/>
<path d="M0 0 C-0.70554068 3.66881155 -2.27735506 6.70450534 -4 10 C-4.515625 9.773125 -5.03125 9.54625 -5.5625 9.3125 C-9.28807032 8.83486278 -11.64516304 10.38709761 -15 12 C-15 11.34 -15 10.68 -15 10 C-12.9102773 8.20460444 -10.82157918 6.52938558 -8.625 4.875 C-8.02171875 4.40707031 -7.4184375 3.93914062 -6.796875 3.45703125 C-2.26141126 0 -2.26141126 0 0 0 Z " fill="#838BC8" transform="translate(161,173)"/>
<path d="M0 0 C-1.875 3.875 -1.875 3.875 -3 5 C-4.68608966 5.07205511 -6.37500659 5.08386068 -8.0625 5.0625 C-8.98160156 5.05347656 -9.90070313 5.04445313 -10.84765625 5.03515625 C-11.55792969 5.02355469 -12.26820313 5.01195312 -13 5 C-11.2109375 1.1640625 -11.2109375 1.1640625 -9.3125 -0.3125 C-6.0239998 -1.29016222 -3.32480873 -0.63938629 0 0 Z " fill="#4E5994" transform="translate(262,262)"/>
<path d="M0 0 C0.99 0.33 1.98 0.66 3 1 C-4.36783995 5.78125784 -11.43526305 9.85881576 -20 12 C-19.67 11.01 -19.34 10.02 -19 9 C-17.15234375 8.26953125 -17.15234375 8.26953125 -14.9375 7.8125 C-13.83728516 7.57466797 -13.83728516 7.57466797 -12.71484375 7.33203125 C-12.14894531 7.22246094 -11.58304687 7.11289062 -11 7 C-11 6.34 -11 5.68 -11 5 C-9.35 4.67 -7.7 4.34 -6 4 C-6 3.34 -6 2.68 -6 2 C-4.02 2 -2.04 2 0 2 C0 1.34 0 0.68 0 0 Z " fill="#838AC3" transform="translate(290,376)"/>
<path d="M0 0 C0.66 0.33 1.32 0.66 2 1 C2 8.59 2 16.18 2 24 C1.34 24 0.68 24 0 24 C0 18.06 0 12.12 0 6 C-0.66 6 -1.32 6 -2 6 C-1.34 4.02 -0.68 2.04 0 0 Z " fill="#5B6AB4" transform="translate(304,266)"/>
<path d="M0 0 C1.32 0.33 2.64 0.66 4 1 C1.69733517 2.77128064 -0.62782434 4.41000773 -3.0625 6 C-5.92379474 7.80167792 -5.92379474 7.80167792 -7.6875 9.75 C-9 11 -9 11 -12 11 C-12.66 9.35 -13.32 7.7 -14 6 C-13.4225 6.2475 -12.845 6.495 -12.25 6.75 C-11.5075 6.8325 -10.765 6.915 -10 7 C-9.38125 6.38125 -8.7625 5.7625 -8.125 5.125 C-5.48436654 2.48436654 -3.64679995 2.33152727 0 2 C0 1.34 0 0.68 0 0 Z " fill="#8991C1" transform="translate(289,250)"/>
<path d="M0 0 C1.31291016 -0.03867187 1.31291016 -0.03867187 2.65234375 -0.078125 C5.4818869 0.30709643 6.31382925 1.05694757 8.0625 3.25 C6.0625 4.25 6.0625 4.25 3.125 3.625 C-2.12365311 2.72427775 -6.97706845 4.6623031 -11.9375 6.25 C-5.94991237 0.10484427 -5.94991237 0.10484427 0 0 Z " fill="#757CAB" transform="translate(294.9375,259.75)"/>
<path d="M0 0 C6.625 0.75 6.625 0.75 10 3 C11.155 3.12375 12.31 3.2475 13.5 3.375 C17 4 17 4 18.71875 6.0390625 C19.1415625 6.68617188 19.564375 7.33328125 20 8 C12.51379318 6.91834274 5.90823655 5.08697772 -1 2 C-0.67 1.34 -0.34 0.68 0 0 Z " fill="#8089C2" transform="translate(182,385)"/>
<path d="M0 0 C-0.6796875 1.953125 -0.6796875 1.953125 -2 4 C-4.3828125 4.609375 -4.3828125 4.609375 -7.125 4.75 C-8.03507813 4.80671875 -8.94515625 4.8634375 -9.8828125 4.921875 C-10.58148438 4.94765625 -11.28015625 4.9734375 -12 5 C-12 5.66 -12 6.32 -12 7 C-14.31 7 -16.62 7 -19 7 C-16.31115623 3.53724548 -13.05779438 2.924596 -8.9375 1.8125 C-7.68839844 1.46832031 -6.43929687 1.12414062 -5.15234375 0.76953125 C-2 0 -2 0 0 0 Z " fill="#9096CA" transform="translate(200,156)"/>
<path d="M0 0 C0.66 0.66 1.32 1.32 2 2 C-3.41735797 2.93402724 -6.80451575 3.20808081 -12 1 C-12.33 1.66 -12.66 2.32 -13 3 C-16.3 2.34 -19.6 1.68 -23 1 C-23 0.67 -23 0.34 -23 0 C-15.31131412 -0.98378855 -7.66929883 -1.41568116 0 0 Z " fill="#7D87C3" transform="translate(255,155)"/>
<path d="M0 0 C4.79503106 2.39751553 4.79503106 2.39751553 6 6 C6.1953125 9.015625 6.1953125 9.015625 6.125 12.25 C6.10695313 13.32765625 6.08890625 14.4053125 6.0703125 15.515625 C6.04710937 16.33546875 6.02390625 17.1553125 6 18 C5.67 18 5.34 18 5 18 C4.67 15.69 4.34 13.38 4 11 C3.34 11 2.68 11 2 11 C1.34 7.37 0.68 3.74 0 0 Z " fill="#5D6498" transform="translate(262,262)"/>
<path d="M0 0 C1.35814777 4.0744433 -0.05254238 6.81468116 -1.4375 10.6875 C-1.68048828 11.38939453 -1.92347656 12.09128906 -2.17382812 12.81445312 C-2.7744944 14.54578532 -3.38619719 16.27328137 -4 18 C-6.17975966 14.73036051 -6.36904422 13.78270322 -6 10 C-5.125 7.9375 -5.125 7.9375 -4 6 C-3.62875 5.2575 -3.2575 4.515 -2.875 3.75 C-2.58625 3.1725 -2.2975 2.595 -2 2 C-1.34 2 -0.68 2 0 2 C0 1.34 0 0.68 0 0 Z " fill="#868CBF" transform="translate(345,302)"/>
<path d="M0 0 C0.66 0.66 1.32 1.32 2 2 C1.01 3.98 0.02 5.96 -1 8 C-3.12438339 8.08078641 -5.2496323 8.13909141 -7.375 8.1875 C-9.15003906 8.23970703 -9.15003906 8.23970703 -10.9609375 8.29296875 C-12.46527344 8.14794922 -12.46527344 8.14794922 -14 8 C-14.66 7.01 -15.32 6.02 -16 5 C-15.67 4.34 -15.34 3.68 -15 3 C-15.66 2.67 -16.32 2.34 -17 2 C-16.01 1.67 -15.02 1.34 -14 1 C-14 2.65 -14 4.3 -14 6 C-12.37509046 6.02698189 -10.75005367 6.04638757 -9.125 6.0625 C-8.22007812 6.07410156 -7.31515625 6.08570313 -6.3828125 6.09765625 C-3.9831415 6.16249257 -3.9831415 6.16249257 -2 5 C-2 3.68 -2 2.36 -2 1 C-1.34 0.67 -0.68 0.34 0 0 Z " fill="#5361A9" transform="translate(282,315)"/>
<path d="M0 0 C0.33 0 0.66 0 1 0 C3.10103082 16.54561772 3.10103082 16.54561772 0 22 C-0.33 22 -0.66 22 -1 22 C-1.10331031 14.57313685 -0.99862699 7.36487404 0 0 Z " fill="#9097C8" transform="translate(347,253)"/>
<path d="M0 0 C1.37310488 0.11940042 2.74443526 0.26083429 4.11328125 0.421875 C4.81517578 0.48761719 5.51707031 0.55335938 6.24023438 0.62109375 C7.97064289 0.78589456 9.69856649 0.97642142 11.42578125 1.171875 C5.81582282 4.91184729 -0.04721944 4.28593907 -6.57421875 4.171875 C-4.77817574 0.62107732 -4.0754105 0.19597602 0 0 Z " fill="#7F86C2" transform="translate(177.57421875,303.828125)"/>
<path d="M0 0 C4.29 0 8.58 0 13 0 C9 4 9 4 6.859375 4.390625 C4.90625 4.26041667 2.953125 4.13020833 1 4 C0.67 2.68 0.34 1.36 0 0 Z " fill="#465491" transform="translate(228,317)"/>
<path d="M0 0 C1.98 0.99 3.96 1.98 6 3 C3.98445443 5.72691459 2.85841061 6.02980829 -0.5625 6.75 C-4 7 -4 7 -6 6 C-6 5.34 -6 4.68 -6 4 C-4.7934375 3.566875 -4.7934375 3.566875 -3.5625 3.125 C-0.8673532 2.26737432 -0.8673532 2.26737432 0 0 Z " fill="#6E78C5" transform="translate(286,168)"/>
<path d="M0 0 C0 0.33 0 0.66 0 1 C-1.134375 1.12375 -2.26875 1.2475 -3.4375 1.375 C-5.2009375 1.684375 -5.2009375 1.684375 -7 2 C-7.33 2.66 -7.66 3.32 -8 4 C-8.66 4 -9.32 4 -10 4 C-10.66 3.34 -11.32 2.68 -12 2 C-15.53318313 1.76957501 -18.61401171 1.95815745 -22 3 C-22.66 2.01 -23.32 1.02 -24 0 C-15.88303369 -1.28162626 -8.14684214 -0.6976874 0 0 Z " fill="#7E88C5" transform="translate(224,155)"/>
<path d="M0 0 C0.99 0.33 1.98 0.66 3 1 C1.02 4.96 -0.96 8.92 -3 13 C-3.99 12.67 -4.98 12.34 -6 12 C-6 10.35 -6 8.7 -6 7 C-4.35 6.67 -2.7 6.34 -1 6 C-0.67 4.02 -0.34 2.04 0 0 Z " fill="#7F87BC" transform="translate(336,323)"/>
<path d="M0 0 C2.97 0.495 2.97 0.495 6 1 C6 1.66 6 2.32 6 3 C6.99 3 7.98 3 9 3 C9 4.32 9 5.64 9 7 C2.47692308 6.38461538 2.47692308 6.38461538 0.0625 4.4375 C-0.288125 3.963125 -0.63875 3.48875 -1 3 C-0.67 2.01 -0.34 1.02 0 0 Z " fill="#4C568E" transform="translate(154,313)"/>
<path d="M0 0 C4.29 0 8.58 0 13 0 C12.67 1.98 12.34 3.96 12 6 C11.67 5.01 11.34 4.02 11 3 C7.7 3 4.4 3 1 3 C0.67 2.01 0.34 1.02 0 0 Z " fill="#9EA5D6" transform="translate(227,250)"/>
<path d="M0 0 C0.66 0 1.32 0 2 0 C5.91058106 4.51220891 5.29469532 9.37895957 5 15 C3.0210244 11.36383344 2.4748935 8.11574371 2 4 C1.01 4.99 0.02 5.98 -1 7 C-1.625 5.1875 -1.625 5.1875 -2 3 C-1.34 2.01 -0.68 1.02 0 0 Z " fill="#6B75A9" transform="translate(303,263)"/>
<path d="M0 0 C0.66 0.99 1.32 1.98 2 3 C1.01257813 3.06058594 0.02515625 3.12117188 -0.9921875 3.18359375 C-2.27351563 3.26738281 -3.55484375 3.35117187 -4.875 3.4375 C-6.15117187 3.51871094 -7.42734375 3.59992188 -8.7421875 3.68359375 C-11.88300152 3.79206027 -11.88300152 3.79206027 -14 5 C-14.66 5.99 -15.32 6.98 -16 8 C-15.25 3.25 -15.25 3.25 -13 1 C-9.9609375 0.5859375 -9.9609375 0.5859375 -6.375 0.375 C-5.18648438 0.30023438 -3.99796875 0.22546875 -2.7734375 0.1484375 C-1.85820312 0.09945313 -0.94296875 0.05046875 0 0 Z " fill="#5B67AC" transform="translate(300,267)"/>
<path d="M0 0 C2.95514876 2.75134539 5.1524809 5.39733775 7 9 C7 9.99 7 10.98 7 12 C5.35 11.67 3.7 11.34 2 11 C0.80712589 7.12315913 0 4.08378077 0 0 Z " fill="#7D87C1" transform="translate(330,210)"/>
<path d="M0 0 C-0.33 0.66 -0.66 1.32 -1 2 C-3.06640625 2.4140625 -3.06640625 2.4140625 -5.5625 2.625 C-6.38878906 2.69976562 -7.21507812 2.77453125 -8.06640625 2.8515625 C-9.02353516 2.92503906 -9.02353516 2.92503906 -10 3 C-10 1.68 -10 0.36 -10 -1 C-5.94568308 -2.15837626 -3.78187881 -1.83691257 0 0 Z " fill="#495492" transform="translate(299,264)"/>
<path d="M0 0 C1.485 0.99 1.485 0.99 3 2 C3.328125 3.98828125 3.328125 3.98828125 3.25 6.3125 C3.22421875 7.11171875 3.1984375 7.9109375 3.171875 8.734375 C2.98340172 11.21879552 2.62286117 13.58641295 2 16 C1.67 16 1.34 16 1 16 C0.63818911 13.70952777 0.28576776 11.41757055 -0.0625 9.125 C-0.25972656 7.84882813 -0.45695313 6.57265625 -0.66015625 5.2578125 C-1 2 -1 2 0 0 Z " fill="#5862AB" transform="translate(225,252)"/>
<path d="M0 0 C0.66 0 1.32 0 2 0 C1.77082032 1.60727327 1.51579198 3.21087416 1.25 4.8125 C1.04117188 6.15248047 1.04117188 6.15248047 0.828125 7.51953125 C-0.168841 10.50572658 -1.3582435 11.38380344 -4 13 C-4 10.66666667 -4 8.33333333 -4 6 C-3.01 6 -2.02 6 -1 6 C-0.67 4.02 -0.34 2.04 0 0 Z " fill="#505B99" transform="translate(211,296)"/>
<path d="M0 0 C2.02045442 0.60183749 4.02111039 1.27306096 6 2 C6.33 2.66 6.66 3.32 7 4 C7.66 3.67 8.32 3.34 9 3 C8.45276317 6.37462715 7.9451 8.08235 6 11 C5.18697675 9.54195831 4.37459869 8.08355685 3.5625 6.625 C3.11003906 5.81289062 2.65757812 5.00078125 2.19140625 4.1640625 C1.4349464 2.79003378 0.70145369 1.40290739 0 0 Z " fill="#8790C4" transform="translate(204,241)"/>
<path d="M0 0 C2 3 2 3 2 5 C5.63 5 9.26 5 13 5 C13.33 4.01 13.66 3.02 14 2 C13.67 3.65 13.34 5.3 13 7 C11.23303157 7.27599507 9.46103785 7.51996915 7.6875 7.75 C6.70136719 7.88921875 5.71523438 8.0284375 4.69921875 8.171875 C2 8 2 8 0.125 6.15625 C-1 4 -1 4 -0.6875 1.75 C-0.460625 1.1725 -0.23375 0.595 0 0 Z " fill="#5360A6" transform="translate(307,316)"/>
<path d="M0 0 C0 0.99 0 1.98 0 3 C-3.96 3 -7.92 3 -12 3 C-12 2.01 -12 1.02 -12 0 C-7.74433453 -1.16063604 -4.3164922 -0.76173392 0 0 Z " fill="#485088" transform="translate(280,316)"/>
<path d="M0 0 C0 0.99 0 1.98 0 3 C-5.94 2.34 -11.88 1.68 -18 1 C-18 0.67 -18 0.34 -18 0 C-15.75265248 -0.39058179 -13.50195579 -0.76192958 -11.25 -1.125 C-9.99703125 -1.33382812 -8.7440625 -1.54265625 -7.453125 -1.7578125 C-4.07025291 -1.99507276 -2.74374672 -1.8707364 0 0 Z " fill="#A5AAD2" transform="translate(190,228)"/>
<path d="M0 0 C3.0625 0.4375 3.0625 0.4375 8.0625 4.4375 C3.1125 4.1075 -1.8375 3.7775 -6.9375 3.4375 C-2.9375 0.4375 -2.9375 0.4375 0 0 Z " fill="#858EC6" transform="translate(260.9375,247.5625)"/>
<path d="M0 0 C0.99 0 1.98 0 3 0 C3.50512244 1.60256108 4.00391627 3.20711792 4.5 4.8125 C4.7784375 5.70582031 5.056875 6.59914062 5.34375 7.51953125 C6 10 6 10 6 13 C5.34 13 4.68 13 4 13 C1.99706653 9.99559979 1.50728374 8.29006055 0.875 4.8125 C0.70742188 3.91144531 0.53984375 3.01039063 0.3671875 2.08203125 C0.24601562 1.39496094 0.12484375 0.70789063 0 0 Z " fill="#858EC3" transform="translate(341,238)"/>
<path d="M0 0 C0.65355469 0.59748047 0.65355469 0.59748047 1.3203125 1.20703125 C5.00994686 4.48936831 8.43077198 6.99399746 13 9 C13 9.33 13 9.66 13 10 C8.32107261 9.54128163 4.64484324 9.10883688 1 6 C0.1875 2.8125 0.1875 2.8125 0 0 Z " fill="#838EB0" transform="translate(147,304)"/>
<path d="M0 0 C0.33 0 0.66 0 1 0 C1.99 3.63 2.98 7.26 4 11 C3.01 11.495 3.01 11.495 2 12 C1.34 12.99 0.68 13.98 0 15 C-1.0024305 9.65370398 -0.84888195 5.37625234 0 0 Z " fill="#6F7BAF" transform="translate(140,288)"/>
<path d="M0 0 C-3.89269663 2.59513109 -7.13772011 4.24290607 -11.875 3.625 C-12.57625 3.41875 -13.2775 3.2125 -14 3 C-13.67 2.34 -13.34 1.68 -13 1 C-8.63585999 0.14428627 -4.43923267 -0.10827397 0 0 Z " fill="#8A91C1" transform="translate(270,388)"/>
<path d="M0 0 C0.66 0.66 1.32 1.32 2 2 C-2.455 4.97 -2.455 4.97 -7 8 C-7.33 6.35 -7.66 4.7 -8 3 C-7.236875 2.87625 -6.47375 2.7525 -5.6875 2.625 C-2.79732864 2.11897208 -2.79732864 2.11897208 0 0 Z " fill="#7E86C2" transform="translate(301,368)"/>
<path d="M0 0 C0.33 0.66 0.66 1.32 1 2 C0.34 2 -0.32 2 -1 2 C-1.0825 2.556875 -1.165 3.11375 -1.25 3.6875 C-2.22610013 6.69714206 -3.95188814 8.62154752 -6 11 C-6.66 10.67 -7.32 10.34 -8 10 C-6.5682479 4.98886765 -4.01554307 3.05530451 0 0 Z " fill="#818CB3" transform="translate(248,261)"/>
<path d="M0 0 C4.98012761 1.50912958 8.24259942 4.55661849 12 8 C9 9 9 9 6.8125 8.0625 C6.214375 7.711875 5.61625 7.36125 5 7 C5 6.01 5 5.02 5 4 C4.360625 3.896875 3.72125 3.79375 3.0625 3.6875 C2.381875 3.460625 1.70125 3.23375 1 3 C0.67 2.01 0.34 1.02 0 0 Z " fill="#9398C6" transform="translate(294,173)"/>
<path d="M0 0 C7.26 0 14.52 0 22 0 C21.67 0.99 21.34 1.98 21 3 C14.07 2.67 7.14 2.34 0 2 C0 1.34 0 0.68 0 0 Z " fill="#8F97B1" transform="translate(165,316)"/>
<path d="M0 0 C0.33 1.65 0.66 3.3 1 5 C0.071875 4.79375 -0.85625 4.5875 -1.8125 4.375 C-5.15173402 3.63307034 -5.15173402 3.63307034 -8 6 C-8.33 5.01 -8.66 4.02 -9 3 C-2.25 0 -2.25 0 0 0 Z " fill="#7982C4" transform="translate(170,169)"/>
<path d="M0 0 C0 0.99 0 1.98 0 3 C-4.455 3.495 -4.455 3.495 -9 4 C-8.67 3.01 -8.34 2.02 -8 1 C-5.07175348 0.02391783 -3.04386724 -0.08226668 0 0 Z " fill="#4A5898" transform="translate(320,318)"/>
<path d="M0 0 C5.53846154 -0.36923077 5.53846154 -0.36923077 7.875 1.5 C8.24625 1.995 8.6175 2.49 9 3 C5.8035914 4.06546953 3.34252724 4.07427838 0 4 C0 2.68 0 1.36 0 0 Z " fill="#465184" transform="translate(173,318)"/>
<path d="M0 0 C2.0625 0.4375 2.0625 0.4375 4 1 C3.67 2.98 3.34 4.96 3 7 C2.01 7 1.02 7 0 7 C-0.38133299 5.0085944 -0.71325582 3.00720923 -1 1 C-0.67 0.67 -0.34 0.34 0 0 Z " fill="#54629F" transform="translate(142,299)"/>
<path d="M0 0 C0.66 0.99 1.32 1.98 2 3 C1.3203125 5.69921875 1.3203125 5.69921875 0.125 8.6875 C-0.26429687 9.68136719 -0.65359375 10.67523438 -1.0546875 11.69921875 C-1.52261719 12.83810547 -1.52261719 12.83810547 -2 14 C-3.25127906 10.45332822 -2.72285053 8.27746562 -1.5625 4.75 C-1.27503906 3.85796875 -0.98757812 2.9659375 -0.69140625 2.046875 C-0.46324219 1.37140625 -0.23507813 0.6959375 0 0 Z " fill="#8990C7" transform="translate(112,235)"/>
<path d="M0 0 C0.99 0.33 1.98 0.66 3 1 C0.36 3.64 -2.28 6.28 -5 9 C-5.33 8.01 -5.66 7.02 -6 6 C-2.83636364 1.41818182 -2.83636364 1.41818182 0 0 Z " fill="#858DC1" transform="translate(311,359)"/>
<path d="M0 0 C0.33 0.99 0.66 1.98 1 3 C0.21625 3.433125 -0.5675 3.86625 -1.375 4.3125 C-4.21698375 5.89220247 -4.21698375 5.89220247 -6 9 C-6.66 9 -7.32 9 -8 9 C-6.4169423 4.7257442 -3.49431596 2.73468206 0 0 Z " fill="#7278A1" transform="translate(166,239)"/>
<path d="M0 0 C1 2 1 2 0.4375 4.5 C-1 7 -1 7 -4.125 8.3125 C-5.07375 8.539375 -6.0225 8.76625 -7 9 C-5.44499019 5.18315774 -2.96404505 2.80804268 0 0 Z " fill="#9CA1CD" transform="translate(144,185)"/>
<path d="M0 0 C2.97 0.33 5.94 0.66 9 1 C9 1.33 9 1.66 9 2 C4.38 2.66 -0.24 3.32 -5 4 C-5 3.34 -5 2.68 -5 2 C-3.35 2 -1.7 2 0 2 C0 1.34 0 0.68 0 0 Z " fill="#9098C4" transform="translate(248,391)"/>
<path d="M0 0 C0.99 0.33 1.98 0.66 3 1 C3 1.66 3 2.32 3 3 C3.66 3.33 4.32 3.66 5 4 C4.67 5.32 4.34 6.64 4 8 C2.35 6.02 0.7 4.04 -1 2 C-0.67 1.34 -0.34 0.68 0 0 Z " fill="#7D88BF" transform="translate(134,349)"/>
<path d="M0 0 C-0.54226981 3.79588866 -2.20127563 5.47211993 -5 8 C-4.74438677 5.6568787 -4.40729228 3.32156597 -4 1 C-2 0 -2 0 0 0 Z " fill="#858AC4" transform="translate(325,345)"/>
<path d="M0 0 C0.99 0.33 1.98 0.66 3 1 C3 1.66 3 2.32 3 3 C2.34 3 1.68 3 1 3 C0.67 5.64 0.34 8.28 0 11 C-0.33 11 -0.66 11 -1 11 C-1.02688151 9.35425434 -1.04634123 7.70838587 -1.0625 6.0625 C-1.07410156 5.14597656 -1.08570313 4.22945313 -1.09765625 3.28515625 C-1 1 -1 1 0 0 Z " fill="#6A73A7" transform="translate(282,266)"/>
<path d="M0 0 C0.99 1.32 1.98 2.64 3 4 C2.34 4 1.68 4 1 4 C1 5.98 1 7.96 1 10 C-0.625 8.375 -0.625 8.375 -2 6 C-1.1875 2.75 -1.1875 2.75 0 0 Z " fill="#7280BE" transform="translate(316,250)"/>
<path d="M0 0 C0.99 0.66 1.98 1.32 3 2 C2.195625 2.61875 1.39125 3.2375 0.5625 3.875 C-2.03874519 5.74164041 -2.03874519 5.74164041 -3 8 C-3.99 7.67 -4.98 7.34 -6 7 C-4.02 4.69 -2.04 2.38 0 0 Z " fill="#848EC2" transform="translate(136,194)"/>
<path d="M0 0 C0.66 0 1.32 0 2 0 C2 1.32 2 2.64 2 4 C-1.96 4 -5.92 4 -10 4 C-10 3.67 -10 3.34 -10 3 C-8.72125 2.87625 -7.4425 2.7525 -6.125 2.625 C-2.65209064 2.30957601 -2.65209064 2.30957601 0 0 Z " fill="#4C5A9C" transform="translate(239,318)"/>
<path d="M0 0 C4.875 4.75 4.875 4.75 6 7 C4.35 6.67 2.7 6.34 1 6 C1 5.01 1 4.02 1 3 C0.34 2.67 -0.32 2.34 -1 2 C-0.67 1.34 -0.34 0.68 0 0 Z " fill="#646E9B" transform="translate(192,244)"/>
<path d="M0 0 C-2.97 1.65 -5.94 3.3 -9 5 C-9 4.01 -9 3.02 -9 2 C-8.34 2 -7.68 2 -7 2 C-7 1.34 -7 0.68 -7 0 C-4 -1 -4 -1 0 0 Z " fill="#9197C7" transform="translate(161,232)"/>
<path d="M0 0 C-0.1875 1.875 -0.1875 1.875 -1 4 C-3.5625 5.25 -3.5625 5.25 -6 6 C-6 5.01 -6 4.02 -6 3 C-2.66666667 0 -2.66666667 0 0 0 Z " fill="#8B93CF" transform="translate(161,173)"/>
<path d="M0 0 C2.475 0.99 2.475 0.99 5 2 C5 2.66 5 3.32 5 4 C6.98 4 8.96 4 11 4 C11 4.33 11 4.66 11 5 C8.36 5.33 5.72 5.66 3 6 C2.67 5.34 2.34 4.68 2 4 C2.33 3.34 2.66 2.68 3 2 C2.01 2 1.02 2 0 2 C0 1.34 0 0.68 0 0 Z " fill="#6D74A2" transform="translate(160,314)"/>
<path d="M0 0 C2.33944736 0.28730055 4.6739143 0.61936779 7 1 C7.33 1.99 7.66 2.98 8 4 C1.25 3.25 1.25 3.25 -1 1 C-0.67 0.67 -0.34 0.34 0 0 Z " fill="#7986B7" transform="translate(182,385)"/>
<path d="M0 0 C1.9375 0.3125 1.9375 0.3125 4 1 C4.33 1.99 4.66 2.98 5 4 C7.00016466 5.20882096 7.00016466 5.20882096 9 6 C8.67 6.66 8.34 7.32 8 8 C6.66372225 6.85760183 5.33104612 5.71098945 4 4.5625 C3.2575 3.92441406 2.515 3.28632813 1.75 2.62890625 C1.1725 2.09136719 0.595 1.55382812 0 1 C0 0.67 0 0.34 0 0 Z " fill="#8893C0" transform="translate(145,363)"/>
<path d="M0 0 C0.33 0 0.66 0 1 0 C1 2.97 1 5.94 1 9 C0.01 8.67 -0.98 8.34 -2 8 C-1.125 2.25 -1.125 2.25 0 0 Z " fill="#5764A3" transform="translate(139,287)"/>
<path d="M0 0 C0.33 0 0.66 0 1 0 C2.35384615 7.38461538 2.35384615 7.38461538 0.5625 10.5 C0.046875 10.995 -0.46875 11.49 -1 12 C-1.08159574 7.83861737 -0.98248524 4.0527516 0 0 Z " fill="#505DA5" transform="translate(137,278)"/>
<path d="M0 0 C1.98 0.495 1.98 0.495 4 1 C3.67 2.32 3.34 3.64 3 5 C1.68 5.33 0.36 5.66 -1 6 C-0.67 4.02 -0.34 2.04 0 0 Z " fill="#8D94C6" transform="translate(240,254)"/>
<path d="M0 0 C1.32 0.33 2.64 0.66 4 1 C2.07423885 3.43929746 0.19909405 5.80090595 -2 8 C-2.20086443 4.28400809 -2.1519437 3.22791555 0 0 Z " fill="#97A0C8" transform="translate(147,238)"/>
<path d="M0 0 C5.75 1.75 5.75 1.75 8 4 C5.6875 4.6875 5.6875 4.6875 3 5 C1.1875 3.6875 1.1875 3.6875 0 2 C0 1.34 0 0.68 0 0 Z " fill="#7F8AC0" transform="translate(271,161)"/>
<path d="M0 0 C-0.66 1.32 -1.32 2.64 -2 4 C-3.65 4 -5.3 4 -7 4 C-6.67 3.01 -6.34 2.02 -6 1 C-3.90006779 0.25486277 -2.22568901 0 0 0 Z " fill="#878FC2" transform="translate(200,156)"/>
<path d="M0 0 C0.99 0.99 1.98 1.98 3 3 C2.67 3.99 2.34 4.98 2 6 C0.02 4.68 -1.96 3.36 -4 2 C-2.68 1.34 -1.36 0.68 0 0 Z " fill="#7F88C1" transform="translate(158,370)"/>
<path d="M0 0 C0.66 0 1.32 0 2 0 C2.33 1.32 2.66 2.64 3 4 C2.34 4 1.68 4 1 4 C0.67 4.99 0.34 5.98 0 7 C-0.66 5.35 -1.32 3.7 -2 2 C-1.34 1.34 -0.68 0.68 0 0 Z " fill="#5B6AB6" transform="translate(164,370)"/>
<path d="M0 0 C4.29 0 8.58 0 13 0 C9 3 9 3 6.640625 2.85546875 C5.85171875 2.63503906 5.0628125 2.41460937 4.25 2.1875 C3.45078125 1.97480469 2.6515625 1.76210938 1.828125 1.54296875 C0.92320312 1.27419922 0.92320312 1.27419922 0 1 C0 0.67 0 0.34 0 0 Z " fill="#424E89" transform="translate(228,317)"/>
<path d="M0 0 C1.48117801 0.28127421 2.95993249 0.57533732 4.4375 0.875 C5.67306641 1.11863281 5.67306641 1.11863281 6.93359375 1.3671875 C7.61550781 1.57601563 8.29742187 1.78484375 9 2 C9.33 2.66 9.66 3.32 10 4 C2.90178571 3.33035714 2.90178571 3.33035714 0 0 Z " fill="#8E95C1" transform="translate(161,303)"/>
<path d="M0 0 C2 2 2 2 2.125 5.625 C2.08375 6.73875 2.0425 7.8525 2 9 C1.34 7.68 0.68 6.36 0 5 C-0.99 5 -1.98 5 -3 5 C-2.67 4.01 -2.34 3.02 -2 2 C-1.34 2 -0.68 2 0 2 C0 1.34 0 0.68 0 0 Z " fill="#939AC7" transform="translate(199,258)"/>
<path d="M0 0 C0.99 0.33 1.98 0.66 3 1 C4.1875 3.5625 4.1875 3.5625 5 6 C4.01 6 3.02 6 2 6 C0 3 0 3 0 0 Z " fill="#8891BF" transform="translate(123,335)"/>
<path d="M0 0 C0.33 0.66 0.66 1.32 1 2 C0.0625 4.125 0.0625 4.125 -1 6 C-2.65 6 -4.3 6 -6 6 C-4 4 -2 2 0 0 Z " fill="#888DB2" transform="translate(204,305)"/>
<path d="M0 0 C0.66 0.33 1.32 0.66 2 1 C1.34 3.31 0.68 5.62 0 8 C-0.66 8 -1.32 8 -2 8 C-1.125 1.125 -1.125 1.125 0 0 Z " fill="#626999" transform="translate(206,302)"/>
<path d="M0 0 C0.33 0 0.66 0 1 0 C0.67 2.31 0.34 4.62 0 7 C-0.99 7 -1.98 7 -3 7 C-1.125 1.125 -1.125 1.125 0 0 Z " fill="#7A80A6" transform="translate(210,295)"/>
<path d="M0 0 C0.66 1.32 1.32 2.64 2 4 C0.68 4.99 -0.64 5.98 -2 7 C-2.33 5.68 -2.66 4.36 -3 3 C-2.34 3 -1.68 3 -1 3 C-0.67 2.01 -0.34 1.02 0 0 Z " fill="#9094CA" transform="translate(194,295)"/>
<path d="M0 0 C0.66 0.33 1.32 0.66 2 1 C2 2.65 2 4.3 2 6 C1.01 6.495 1.01 6.495 0 7 C-0.66 6.67 -1.32 6.34 -2 6 C-1.34 4.02 -0.68 2.04 0 0 Z " fill="#4F5F9E" transform="translate(304,266)"/>
<path d="M0 0 C3.465 1.98 3.465 1.98 7 4 C6.34 4.66 5.68 5.32 5 6 C4.01 5.67 3.02 5.34 2 5 C0.8125 2.4375 0.8125 2.4375 0 0 Z " fill="#848BAD" transform="translate(185,239)"/>
<path d="M0 0 C1.32 0.33 2.64 0.66 4 1 C4 1.66 4 2.32 4 3 C1.69 3.33 -0.62 3.66 -3 4 C-2.01 2.68 -1.02 1.36 0 0 Z " fill="#46518D" transform="translate(167,241)"/>
<path d="M0 0 C0.99 0.33 1.98 0.66 3 1 C2.34 1 1.68 1 1 1 C0.67 2.32 0.34 3.64 0 5 C-2.475 4.01 -2.475 4.01 -5 3 C-4.34 2.34 -3.68 1.68 -3 1 C-2.01 1.33 -1.02 1.66 0 2 C0 1.34 0 0.68 0 0 Z " fill="#707BBE" transform="translate(151,233)"/>
<path d="M0 0 C0.66 0 1.32 0 2 0 C3.42944945 2.35438733 4.08661261 3.48032433 3.625 6.25 C3.41875 6.8275 3.2125 7.405 3 8 C1.0549 5.08235 0.54723683 3.37462715 0 0 Z " fill="#7F8ABB" transform="translate(337,225)"/>
</svg>
